<?xml version="1.0" encoding="UTF-8"?>
<!-- Created with Inkscape (http://www.inkscape.org/) -->
<svg width="535" height="462" version="1.1" viewBox="0 0 142 122" xml:space="preserve" xmlns="http://www.w3.org/2000/svg"><g transform="translate(-33.1 -57.5)" stroke="#000"><path d="m48.9 59.4h28.5l13.2 14.8h47c7.75 0 14 6.14 14 13.8v76.1c0 7.63-6.24 13.8-14 13.8h-88.8c-7.75 0-14-6.14-14-13.8v-90.9c0-7.63 6.24-13.8 14-13.8z" fill="#fff" stroke-width="3.71"/><path d="m111 59.5h34.2l28.2 26.1v80.4c0 6.65-5.44 12-12.2 12h-50.2c-6.75 0-12.2-5.35-12.2-12v-94.5c0-6.65 5.44-12 12.2-12z" fill="#fff" stroke-width="3.23"/><g fill="none" stroke-linecap="round" stroke-width="3.11"><path d="m112 113h48"/><path d="m112 127h48"/><path d="m112 141h48"/></g><path d="m145 61.4 25.8 23.7h-25.8z" fill="#fff" stroke-width="3.11"/></g></svg>
